<svg width="58" height="20" viewBox="0 0 58 20" xmlns="http://www.w3.org/2000/svg">
  <defs>
    <linearGradient id="gradient" gradientTransform="rotate(130)">
      <stop offset="0%" stop-color="#b1e3ec" />
      <stop offset="100%" stop-color="#dff2fd" />
    </linearGradient>
  </defs>
  <path id="Ellipse_1" d="M55.4935 17.6581C57.6954 15.3026 57.7226 11.6027 55.2337 9.55262C52.2436 7.08961 48.9569 5.05308 45.4554 3.50154C40.2384 1.18982 34.6468 -1.3682e-06 29 0C23.3531 1.36821e-06 17.7616 1.18983 12.5446 3.50155C9.04313 5.05309 5.7564 7.08962 2.76624 9.55263C0.277369 11.6027 0.304562 15.3026 2.50652 17.6582V17.6582C4.92878 20.2494 9.01652 20.1885 11.9199 18.1508C13.5481 17.0079 15.2769 16.0283 17.0848 15.2272C20.8624 13.5533 24.9112 12.6918 29 12.6918C33.0888 12.6918 37.1376 13.5533 40.9152 15.2272C42.7231 16.0283 44.4519 17.0079 46.0801 18.1507C48.9835 20.1885 53.0712 20.2494 55.4935 17.6581V17.6581Z" fill="url(#gradient)" />
</svg>